# xmcd
# Copyright (C) 1995-1998 Ti Kan
#
# Track frame offsets:
#       150
#       79032
#       144060
#       213832
#
# Disc length: 3468 seconds
#
# Revision: 0
# Processed by: cddbd v1.5.2PL0 Copyright (c) Steve Scherf et al.
# Submitted via: CD-Transfer v1.0
#
DISCID=270d8a04
DTITLE=Beiträge - 
DYEAR=1900
DGENRE=
TTITLE0=Wurlitzer 19.01. - 05
TTITLE1=Wurlitzer 19.01. - 06
TTITLE2=Wurlitzer 19.01. - 07
TTITLE3=Wurlitzer 19.01. - 08
EXTD=
EXTT0=
EXTT1=
EXTT2=
EXTT3=
PLAYORDER=
